<?xml version="1.0" standalone="no"?>
<!DOCTYPE svg PUBLIC "-//W3C//DTD SVG 20010904//EN"
 "http://www.w3.org/TR/2001/REC-SVG-20010904/DTD/svg10.dtd">
<svg version="1.0" xmlns="http://www.w3.org/2000/svg"
 width="3125.000000pt" height="1875.000000pt" viewBox="0 0 3125.000000 1875.000000"
 preserveAspectRatio="xMidYMid meet">

<g transform="translate(0.000000,1875.000000) scale(0.100000,-0.100000)"
fill="#000000" stroke="none">
<path d="M4155 13309 c-417 -23 -815 -162 -1130 -396 -417 -310 -689 -816
-770 -1428 -34 -259 -30 -612 10 -881 56 -367 209 -789 381 -1044 292 -434
674 -667 1244 -756 135 -21 480 -30 620 -15 732 76 1262 494 1518 1196 49 135
83 253 74 259 -4 2 -126 34 -272 70 -146 37 -273 69 -282 72 -13 4 -19 -5 -28
-38 -131 -523 -399 -851 -817 -1001 -263 -95 -623 -95 -909 -2 -197 65 -358
160 -502 300 -292 280 -444 726 -459 1341 -9 359 27 617 128 926 156 472 529
794 1024 884 140 25 454 26 578 1 424 -86 691 -332 867 -799 19 -51 39 -88 47
-88 25 0 538 123 547 131 13 11 -45 174 -114 317 -169 351 -413 603 -746 770
-282 142 -617 202 -1009 181z"/>
<path d="M8525 13309 c-901 -83 -1577 -674 -1790 -1564 -84 -349 -107 -787
-60 -1115 70 -489 292 -956 600 -1265 382 -382 893 -585 1470 -585 363 0 686
76 1000 235 447 226 757 585 944 1093 105 286 153 579 153 937 -1 432 -73 784
-232 1131 -280 607 -845 1020 -1531 1119 -131 19 -423 27 -554 14z m510 -514
c321 -58 630 -240 831 -488 186 -231 311 -544 360 -904 25 -176 24 -548 0
-726 -72 -525 -274 -889 -642 -1153 -87 -62 -242 -141 -344 -174 -369 -123
-824 -94 -1154 71 -190 96 -384 258 -511 428 -171 228 -281 535 -316 875 -13
136 -7 560 11 691 66 481 216 806 478 1031 244 210 527 333 847 368 81 8 353
-3 440 -19z"/>
<path d="M26990 13308 c-479 -22 -928 -178 -1251 -435 -318 -253 -559 -650
-684 -1126 -93 -353 -116 -725 -69 -1085 60 -465 241 -888 510 -1195 295 -338
779 -581 1319 -663 171 -26 590 -26 760 0 474 73 934 273 1353 588 l92 70 0
814 0 814 -930 0 -930 0 2 -257 3 -258 643 -3 642 -2 -2 -412 -3 -413 -80 -57
c-244 -175 -601 -319 -920 -369 -124 -20 -458 -17 -580 5 -267 49 -510 146
-705 283 -146 104 -316 305 -405 482 -77 155 -137 358 -172 581 -22 144 -25
576 -5 715 63 440 213 774 457 1021 231 234 526 364 914 404 519 52 993 -104
1230 -407 72 -91 175 -293 221 -436 21 -63 37 -96 45 -94 6 3 121 35 255 72
135 36 246 68 249 70 6 7 -35 144 -76 255 -86 231 -204 422 -353 570 -113 113
-222 188 -391 269 -331 159 -683 221 -1139 199z"/>
<path d="M12791 13218 c-208 -536 -1671 -4353 -1671 -4359 0 -5 129 -9 304 -9
l304 0 41 113 c22 61 131 360 240 662 l200 550 919 3 920 2 46 -117 c25 -65
140 -363 255 -663 l209 -545 331 -3 331 -2 -18 44 c-9 24 -413 1011 -897 2195
l-880 2151 -313 0 -312 0 -9 -22z m344 -558 c62 -213 223 -655 644 -1768 45
-118 81 -220 81 -228 0 -12 -112 -14 -740 -14 -407 0 -740 2 -740 5 0 3 114
310 254 682 140 373 277 749 305 836 50 157 151 543 151 581 0 38 18 1 45 -94z"/>
<path d="M14900 12980 l0 -260 725 0 725 0 0 -1935 0 -1935 290 0 290 0 0
1935 0 1935 725 0 725 0 0 260 0 260 -1740 0 -1740 0 0 -260z"/>
<path d="M19080 11045 l0 -2195 285 0 285 0 0 2195 0 2195 -285 0 -285 0 0
-2195z"/>
<path d="M20672 11048 l3 -2193 277 -3 278 -2 2 1722 3 1723 1139 -1705 c626
-938 1146 -1713 1154 -1722 14 -16 42 -18 309 -18 l293 0 0 2195 0 2195 -275
0 -275 0 0 -1722 c0 -1219 -3 -1719 -11 -1711 -6 6 -525 779 -1154 1719
l-1143 1709 -301 3 -301 2 2 -2192z"/>
<path d="M7265 7944 c-245 -43 -457 -154 -616 -322 -225 -237 -330 -562 -316
-977 14 -434 174 -808 431 -1012 197 -155 428 -220 756 -210 194 6 285 25 429
93 210 98 354 244 462 466 42 88 95 245 86 254 -4 4 -280 78 -313 84 -1 0 -14
-39 -29 -87 -108 -348 -344 -532 -685 -535 -126 -1 -210 14 -307 52 -237 95
-382 271 -453 552 -100 395 -38 859 145 1098 147 192 347 281 625 281 209 0
345 -49 465 -166 71 -71 133 -168 171 -273 21 -55 31 -71 43 -68 9 3 77 19
151 37 74 17 139 35 143 39 16 14 -73 217 -136 310 -45 66 -154 176 -222 225
-114 81 -244 134 -394 160 -105 19 -329 18 -436 -1z"/>
<path d="M11792 7945 c-468 -85 -806 -424 -907 -910 -45 -217 -45 -497 -1
-688 86 -371 294 -649 598 -802 177 -89 334 -125 543 -125 379 0 716 157 919
427 110 146 193 338 233 538 26 129 26 471 0 604 -102 521 -435 865 -926 956
-102 19 -355 19 -459 0z m443 -286 c245 -59 438 -227 541 -469 120 -285 123
-711 7 -990 -48 -115 -94 -183 -188 -277 -80 -80 -105 -97 -196 -141 -136 -66
-220 -84 -379 -84 -94 0 -145 6 -205 21 -264 70 -470 258 -564 518 -50 136
-65 237 -64 433 1 406 93 656 303 827 205 166 479 226 745 162z"/>
<path d="M20145 7944 c-175 -26 -369 -102 -510 -197 -226 -153 -396 -455 -456
-808 -29 -172 -23 -442 14 -599 87 -369 282 -628 586 -780 103 -51 286 -108
411 -126 146 -21 392 -15 525 14 220 48 427 143 642 296 l73 51 0 458 0 457
-520 0 -520 0 0 -140 0 -140 363 -2 362 -3 3 -227 2 -226 -42 -36 c-51 -44
-234 -136 -339 -170 -245 -81 -512 -72 -746 26 -251 104 -411 309 -474 608
-18 84 -22 140 -23 280 -1 194 9 272 56 420 36 113 66 174 123 255 158 220
386 326 705 327 371 1 600 -152 704 -469 12 -36 23 -53 34 -53 20 0 263 68
270 75 11 10 -31 133 -77 230 -26 55 -69 128 -94 161 -123 161 -349 281 -607
320 -117 17 -345 17 -465 -2z"/>
<path d="M2230 6690 l0 -1230 160 0 160 0 2 558 3 557 578 3 577 2 0 145 0
145 -580 0 -580 0 0 380 0 380 670 0 670 0 0 145 0 145 -830 0 -830 0 0 -1230z"/>
<path d="M4786 7881 c-43 -108 -926 -2411 -926 -2416 0 -3 77 -4 171 -3 l171
3 133 365 132 365 519 3 519 2 140 -366 c77 -202 145 -368 150 -370 6 -3 90
-3 186 -2 l176 3 -502 1225 -501 1225 -176 3 -176 2 -16 -39z m232 -369 c32
-101 299 -825 377 -1024 7 -17 -17 -18 -410 -18 -393 0 -417 1 -413 18 3 9 71
193 152 409 141 378 201 560 226 691 7 34 15 62 19 62 3 0 26 -62 49 -138z"/>
<path d="M8720 7775 l0 -145 405 0 405 0 0 -1085 0 -1085 165 0 165 0 0 1085
0 1085 405 0 405 0 0 145 0 145 -975 0 -975 0 0 -145z"/>
<path d="M13630 6691 l0 -1231 160 0 160 0 0 546 0 545 288 -3 288 -3 79 -39
c145 -72 239 -189 586 -733 l197 -308 205 -3 206 -2 -234 366 c-129 201 -263
403 -299 447 -88 114 -201 218 -287 265 l-72 40 59 11 c327 64 520 210 601
456 22 68 26 98 26 200 0 83 -5 140 -17 185 -40 147 -127 281 -232 356 -75 54
-135 78 -259 107 -85 19 -128 21 -772 24 l-683 4 0 -1230z m1327 937 c133 -40
215 -104 265 -206 31 -63 33 -73 33 -172 0 -97 -2 -110 -31 -170 -58 -122
-159 -193 -320 -227 -66 -13 -152 -16 -514 -17 l-435 -1 -3 408 -2 408 477 -4
c400 -3 487 -6 530 -19z"/>
<path d="M15800 7916 c0 -2 212 -320 470 -707 l470 -703 0 -523 0 -523 165 0
165 0 0 523 0 523 489 707 490 707 -189 0 -189 0 -127 -192 c-297 -450 -465
-710 -533 -823 -40 -66 -76 -124 -80 -128 -5 -4 -60 79 -124 185 -64 106 -229
364 -365 573 l-249 380 -197 3 c-108 1 -196 0 -196 -2z"/>
<path d="M21910 6690 l0 -1230 155 0 155 0 2 1040 3 1040 244 -717 c134 -395
293 -863 354 -1040 l109 -323 147 0 147 0 354 1022 355 1022 3 -1022 2 -1022
160 0 160 0 0 1230 0 1230 -222 -2 -222 -3 -238 -690 c-130 -379 -292 -851
-359 -1048 l-122 -359 -351 1051 -351 1051 -242 0 -243 0 0 -1230z"/>
<path d="M24770 6689 l0 -1230 593 4 c552 4 598 5 688 25 99 21 215 64 283
105 101 62 204 199 251 334 125 359 -30 703 -369 823 l-49 18 66 41 c183 116
288 317 273 523 -19 258 -203 480 -456 547 -134 36 -230 41 -762 41 l-518 0 0
-1231z m1144 922 c116 -26 190 -85 240 -190 28 -60 31 -75 31 -167 0 -96 -2
-105 -35 -170 -42 -82 -101 -131 -199 -165 -64 -23 -79 -23 -463 -27 l-398 -3
0 371 0 372 388 -5 c231 -3 407 -9 436 -16z m-101 -1021 c64 -5 139 -15 165
-21 129 -32 222 -105 275 -217 30 -63 32 -73 32 -182 0 -108 -2 -119 -32 -182
-57 -121 -153 -191 -303 -223 -56 -12 -154 -15 -466 -15 l-394 0 0 418 c0 230
3 422 7 425 10 11 583 8 716 -3z"/>
<path d="M27090 6690 l0 -1230 160 0 160 0 0 580 0 580 645 0 645 0 0 -580 0
-580 160 0 160 0 0 1230 0 1230 -160 0 -160 0 0 -505 0 -505 -645 0 -645 0 0
505 0 505 -160 0 -160 0 0 -1230z"/>
</g>
</svg>
