<?xml version="1.0" standalone="no"?>
<!DOCTYPE svg PUBLIC "-//W3C//DTD SVG 20010904//EN"
 "http://www.w3.org/TR/2001/REC-SVG-20010904/DTD/svg10.dtd">
<svg version="1.0" xmlns="http://www.w3.org/2000/svg"
 width="3125.000000pt" height="1875.000000pt" viewBox="0 0 3125.000000 1875.000000"
 preserveAspectRatio="xMidYMid meet">

<g transform="translate(0.000000,1875.000000) scale(0.100000,-0.100000)"
fill="#dd9b2c" stroke="none">
<path d="M8690 17684 c-105 -28 -200 -101 -258 -196 -65 -109 -62 32 -62
-2405 0 -2054 1 -2213 17 -2213 9 0 67 10 129 21 l114 21 2 2212 c3 2115 4
2212 21 2244 11 21 34 41 60 53 41 18 228 19 9377 19 9149 0 9336 -1 9377 -19
26 -12 49 -32 60 -53 17 -32 18 -321 18 -8005 l0 -7972 -21 -28 c-12 -15 -36
-37 -55 -48 -34 -20 -52 -20 -9379 -20 -9327 0 -9345 0 -9379 20 -19 11 -43
33 -55 48 l-21 28 -3 1885 -2 1884 -130 0 -130 0 0 -1859 c0 -1206 4 -1877 10
-1911 25 -130 117 -250 238 -311 l67 -34 9405 0 9405 0 66 32 c119 59 214 183
239 313 7 35 10 2696 10 7979 0 8655 4 8006 -56 8109 -61 103 -158 178 -269
207 -53 13 -1014 15 -9400 14 -8189 0 -9347 -2 -9395 -15z"/>
<path d="M5105 12473 c-285 -23 -514 -85 -745 -204 -467 -241 -767 -671 -875
-1254 -99 -542 -22 -1132 210 -1600 249 -502 629 -771 1200 -850 402 -56 769
-9 1070 135 311 150 537 383 700 722 52 108 135 339 135 376 0 17 -34 26 -480
139 -11 3 -20 -17 -37 -80 -93 -361 -293 -627 -580 -771 -155 -78 -301 -110
-503 -110 -162 -1 -250 12 -390 56 -372 118 -610 361 -739 755 -189 577 -126
1351 143 1760 95 145 237 274 396 361 304 166 784 187 1086 47 241 -111 420
-325 526 -629 16 -45 28 -66 39 -66 20 0 469 106 475 113 7 7 -55 176 -102
277 -72 152 -164 282 -288 405 -250 249 -543 378 -936 414 -109 10 -215 12
-305 4z"/>
<path d="M8875 12470 c-424 -49 -772 -210 -1053 -488 -277 -275 -445 -629
-517 -1092 -22 -141 -31 -533 -16 -671 48 -414 217 -817 460 -1093 192 -218
456 -392 740 -486 620 -207 1331 -76 1809 333 326 279 550 749 603 1265 17
170 7 536 -20 687 -81 453 -238 774 -515 1050 -264 263 -568 416 -955 482
-105 17 -426 25 -536 13z m978 -461 c45 -22 103 -54 130 -71 l47 -30 -5 -52
c-11 -95 -27 -151 -65 -231 -68 -142 -197 -257 -350 -312 l-75 -27 -490 -7
c-287 -4 -525 -11 -575 -18 -318 -45 -591 -125 -857 -251 -68 -32 -123 -55
-123 -50 0 26 79 229 121 312 l50 97 87 31 c224 81 441 134 682 166 96 13 232
18 580 21 520 5 517 4 604 84 79 72 98 124 104 276 l4 122 24 -9 c13 -5 61
-28 107 -51z m529 -416 c36 -43 84 -106 107 -141 l42 -62 -38 -73 c-157 -298
-445 -525 -782 -615 -94 -24 -105 -25 -591 -33 -581 -9 -697 -21 -952 -99
-230 -71 -518 -220 -672 -347 -23 -19 -31 -22 -37 -11 -11 20 -29 185 -29 270
l0 76 121 73 c257 153 524 251 844 310 109 20 167 23 630 29 554 8 567 9 722
70 248 95 459 320 539 573 10 31 21 57 25 57 4 0 36 -35 71 -77z m347 -680
c17 -71 33 -157 37 -193 l6 -65 -83 -82 c-232 -228 -525 -391 -841 -468 -185
-45 -317 -55 -758 -55 -427 0 -512 -6 -685 -51 -226 -57 -472 -192 -644 -354
l-53 -50 -24 30 c-13 16 -47 76 -76 133 -40 80 -49 108 -42 120 20 33 181 155
288 219 205 122 395 192 651 240 60 11 210 17 590 23 568 9 591 11 800 81 140
47 294 126 415 212 101 73 256 225 325 320 27 37 52 67 56 67 4 0 21 -57 38
-127z m6 -779 c-23 -100 -63 -217 -106 -312 l-38 -83 -123 -58 c-162 -77 -291
-125 -452 -166 -246 -63 -292 -67 -846 -75 -499 -7 -506 -7 -601 -32 -148 -40
-282 -113 -387 -210 l-52 -49 -58 45 c-31 24 -84 70 -117 100 l-60 56 67 63
c166 157 389 271 618 314 67 12 195 17 590 23 520 8 562 11 745 56 260 65 542
196 759 353 39 28 71 49 73 47 2 -2 -3 -35 -12 -72z"/>
<path d="M24855 12470 c-480 -43 -862 -206 -1146 -489 -264 -264 -439 -631
-520 -1086 -27 -152 -37 -482 -20 -646 53 -511 263 -959 580 -1236 270 -236
636 -396 1034 -449 148 -21 452 -23 587 -6 416 55 798 211 1175 480 50 36 100
74 113 85 l22 20 0 704 0 703 -805 0 -805 0 0 -225 0 -225 555 0 555 0 0 -358
0 -359 -62 -46 c-172 -127 -462 -253 -713 -309 -116 -25 -425 -36 -547 -19
-267 39 -529 145 -707 288 -285 227 -446 596 -470 1076 -15 294 17 560 95 794
118 353 332 607 629 748 347 164 848 178 1186 31 278 -120 430 -295 542 -621
17 -52 36 -95 42 -95 10 0 257 66 377 101 l67 19 -20 72 c-46 163 -125 338
-217 477 -193 292 -554 492 -1003 556 -132 19 -395 26 -524 15z"/>
<path d="M12607 12403 c-3 -5 -330 -854 -727 -1888 -397 -1034 -725 -1886
-727 -1893 -4 -10 50 -12 262 -10 l268 3 207 570 207 570 798 0 799 0 220
-572 221 -573 282 0 c156 0 283 4 283 8 0 4 -348 858 -773 1898 l-774 1889
-271 3 c-149 1 -273 -1 -275 -5z m323 -583 c67 -210 160 -467 404 -1114 108
-286 196 -523 196 -528 0 -4 -288 -8 -640 -8 -352 0 -640 4 -640 8 0 5 98 271
219 593 263 703 332 913 382 1167 6 35 15 60 19 55 4 -4 31 -82 60 -173z"/>
<path d="M14430 12190 l0 -220 628 -2 627 -3 3 -1677 2 -1678 250 0 250 0 0
1680 0 1680 630 0 630 0 0 220 0 220 -1510 0 -1510 0 0 -220z"/>
<path d="M18050 10510 l0 -1900 250 0 250 0 0 1900 0 1900 -250 0 -250 0 0
-1900z"/>
<path d="M19440 10510 l0 -1900 240 0 240 0 2 1491 3 1491 995 -1488 995
-1489 263 -3 262 -2 0 1900 0 1900 -245 0 -245 0 -2 -1487 -3 -1487 -995 1487
-994 1487 -258 0 -258 0 0 -1900z"/>
<path d="M7892 7829 c-446 -43 -760 -323 -864 -769 -25 -110 -36 -392 -19
-511 42 -292 138 -506 301 -669 137 -138 271 -203 485 -236 136 -21 350 -14
460 15 249 67 443 230 550 465 44 97 79 206 69 215 -9 9 -265 74 -268 69 -1
-2 -15 -41 -30 -88 -15 -47 -43 -114 -63 -150 -46 -83 -150 -186 -230 -228
-178 -93 -414 -96 -602 -7 -99 47 -163 97 -218 170 -118 155 -172 356 -173
636 0 456 176 744 507 830 92 23 258 28 349 9 181 -37 319 -162 395 -355 32
-81 18 -78 187 -38 83 20 112 31 112 43 0 8 -15 51 -33 95 -84 206 -244 366
-447 448 -124 49 -310 72 -468 56z"/>
<path d="M11803 7829 c-233 -27 -424 -117 -579 -273 -217 -218 -315 -512 -301
-900 6 -172 30 -280 92 -429 113 -268 327 -464 600 -550 120 -38 229 -51 374
-44 467 20 812 300 926 752 85 333 41 705 -116 980 -54 97 -187 239 -280 300
-207 138 -454 195 -716 164z m317 -256 c136 -31 279 -122 365 -231 246 -309
246 -933 0 -1221 -153 -179 -344 -260 -589 -249 -88 4 -129 11 -197 35 -173
59 -313 183 -395 348 -67 137 -86 220 -91 416 -13 444 110 705 402 852 142 71
333 90 505 50z"/>
<path d="M19065 7829 c-184 -15 -382 -81 -512 -170 -206 -141 -347 -380 -409
-695 -26 -129 -24 -377 3 -504 94 -440 365 -711 803 -806 107 -23 389 -26 495
-5 183 36 381 122 550 238 l100 69 3 397 2 397 -455 0 -455 0 0 -125 0 -125
315 0 315 0 0 -200 0 -200 -42 -31 c-24 -17 -78 -49 -121 -70 -290 -147 -585
-155 -852 -24 -107 52 -179 113 -245 208 -179 253 -198 723 -44 1031 114 226
307 352 578 375 247 21 454 -42 573 -174 48 -52 99 -146 127 -231 l17 -51 121
33 c66 19 123 36 126 39 16 15 -73 230 -127 309 -158 229 -484 347 -866 315z"/>
<path d="M3442 6733 l3 -1068 137 -3 138 -3 2 488 3 488 503 3 503 2 -3 123
-3 122 -502 3 -503 2 0 330 0 330 580 0 580 0 0 125 0 125 -720 0 -720 0 2
-1067z"/>
<path d="M5662 7773 c-5 -16 -186 -487 -402 -1048 -216 -561 -395 -1030 -398
-1042 l-4 -23 145 0 145 0 14 38 c9 20 62 166 119 325 l104 287 449 -2 449 -3
79 -205 c43 -113 99 -258 124 -322 l46 -118 160 0 c88 0 158 4 156 9 -1 4
-199 486 -438 1070 l-434 1061 -152 0 -152 0 -10 -27z m198 -330 c24 -71 107
-300 186 -511 79 -210 144 -384 144 -387 0 -3 -162 -5 -360 -5 -198 0 -360 2
-360 5 0 2 48 132 106 287 136 363 186 508 215 635 13 57 25 103 26 103 1 0
20 -57 43 -127z"/>
<path d="M9070 7675 l0 -125 355 0 355 0 0 -945 0 -945 140 0 140 0 0 945 0
945 355 0 355 0 0 125 0 125 -850 0 -850 0 0 -125z"/>
<path d="M13330 6730 l0 -1070 140 0 140 0 0 476 0 475 248 -3 247 -3 69 -33
c124 -58 210 -166 507 -633 89 -140 167 -260 173 -267 9 -9 55 -12 184 -10
l172 3 -192 300 c-105 165 -216 334 -246 375 -79 108 -195 219 -272 259 l-64
35 79 17 c271 59 420 175 491 385 54 161 28 368 -64 510 -98 150 -228 219
-462 244 -52 5 -332 10 -622 10 l-528 0 0 -1070z m1121 820 c177 -33 292 -161
293 -324 0 -137 -61 -245 -172 -304 -103 -55 -167 -62 -588 -62 l-374 0 0 350
0 350 394 0 c221 0 417 -4 447 -10z"/>
<path d="M15226 7773 c9 -16 194 -293 411 -618 l393 -590 0 -452 0 -453 140 0
140 0 0 454 0 454 419 606 c230 332 422 609 426 615 4 8 -44 11 -157 11 l-163
0 -225 -342 c-124 -187 -264 -405 -312 -482 -123 -200 -112 -187 -133 -146
-40 78 -150 254 -377 603 l-240 367 -170 0 -170 0 18 -27z"/>
<path d="M20510 6730 l0 -1071 133 3 132 3 5 901 5 900 306 -900 306 -901 125
-3 126 -3 30 83 c16 46 155 445 308 887 l279 805 5 -885 5 -884 133 -3 132 -3
0 1071 0 1070 -187 0 -188 0 -209 -608 c-115 -334 -253 -737 -308 -897 -54
-159 -101 -297 -104 -305 -3 -8 -141 395 -308 895 l-302 910 -212 3 -212 2 0
-1070z"/>
<path d="M22990 6731 l0 -1071 398 0 c596 0 747 16 912 97 125 61 215 170 271
330 30 84 37 247 14 333 -43 166 -164 300 -322 356 -29 10 -53 21 -53 25 0 3
18 15 39 27 136 77 231 224 247 386 20 199 -104 415 -290 506 -143 70 -160 72
-718 77 l-498 4 0 -1070z m1000 797 c30 -8 69 -22 85 -30 153 -81 195 -345 76
-480 -87 -98 -187 -118 -608 -118 l-273 0 0 326 0 326 333 -5 c241 -4 347 -9
387 -19z m-32 -888 c46 -6 108 -20 137 -31 72 -27 147 -96 182 -167 24 -50 27
-69 28 -157 0 -88 -3 -107 -26 -156 -36 -75 -87 -130 -151 -161 -97 -47 -139
-51 -508 -52 l-345 -1 -3 368 -2 367 303 0 c166 0 340 -5 385 -10z"/>
<path d="M25000 6730 l0 -1070 140 0 140 0 0 505 0 505 560 0 560 0 0 -505 0
-506 138 3 137 3 3 1068 2 1067 -140 0 -140 0 -2 -437 -3 -438 -557 -3 -558
-2 0 440 0 440 -140 0 -140 0 0 -1070z"/>
</g>
</svg>
